:SAMPLES-PER-SECOND 30
:FRAME-RANGE 1-4244
:FULLY-SPECIFIED
:DEGREES
2918
root  55.0422 19.5942 41.2927 -120.528 28.7031 -177.423
RightUpLeg  -41.3755 -14.4929 1.61911
RightLeg  90.6728 -0.0645651 7.79112
RightFoot  12.9269 -3.856 18.218
RightToes  -1.33073e-015 0 -3.6325e-017
Spine  25.6462 4.02762 -5.05487
Spine1  -4.60527 2.60733 2.98888
HEad  -22.1764 22.7722 -23.3912
LeftShoulder1  3.2167 -12.4018 -13.7621
LeftArm  -21.2346 -40.8271 -32.0284
LeftForeArm  33.9142 -19.5392 -3.97079
LeftHand  -0.111612 4.55454 13.8383
RightShoulder  1.19955 8.61047 1.9659
RightArm  4.55236 66.6849 88.79
RightForeArm  49.452 -5.21391 -1.05357
RightHand  -7.19433 5.24988 -69.2327
LeftUpLeg  -53.8857 -5.6137 11.9839
LeftLeg  95.9542 2.5337 -19.3516
LeftFoot  21.0004 5.80678 -20.3021
LeftToes  2.72522e-012 8.43823e-011 6.24977e-012
2919
root  54.9645 19.627 41.0742 -120.029 28.6682 -176.419
RightUpLeg  -43.4764 -15.7496 2.75382
RightLeg  93.4259 -0.25693 5.93999
RightFoot  13.5737 -3.61251 16.6775
RightToes  -1.33073e-015 0 -3.6325e-017
Spine  25.7147 4.62625 -5.11027
Spine1  -4.77375 3.01578 4.38815
HEad  -21.8156 22.9681 -23.5898
LeftShoulder1  3.38745 -12.9877 -14.1009
LeftArm  -30.8801 -41.4723 -27.0445
LeftForeArm  34.749 -14.8516 -4.48359
LeftHand  -0.176344 3.89769 12.887
RightShoulder  1.11143 8.44081 1.27454
RightArm  4.34641 66.5222 88.9398
RightForeArm  48.5331 -5.21126 -1.21039
RightHand  -7.55787 5.70203 -69.6443
LeftUpLeg  -53.274 -5.58685 12.6046
LeftLeg  95.3024 2.52915 -20.914
LeftFoot  20.6277 5.83651 -20.6395
LeftToes  2.72522e-012 8.43823e-011 6.24977e-012
2920
root  54.8934 19.6329 40.8896 -119.565 28.6906 -175.607
RightUpLeg  -45.7956 -16.4109 3.74036
RightLeg  96.3761 -0.471545 5.3496
RightFoot  13.8016 -3.2273 14.831
RightToes  -1.33073e-015 0 -3.6325e-017
Spine  25.7026 5.17764 -5.52318
Spine1  -4.93399 3.3695 5.48781
HEad  -21.8038 22.9132 -23.7334
LeftShoulder1  3.54649 -13.5602 -14.3576
LeftArm  -36.9664 -42.0431 -23.0468
LeftForeArm  31.2181 -10.2925 -3.65874
LeftHand  -0.265814 2.752 11.3674
RightShoulder  1.02565 8.24249 0.609879
RightArm  4.90004 66.5486 89.4869
RightForeArm  47.8983 -5.2357 -1.16481
RightHand  -7.72372 5.88131 -69.9499
LeftUpLeg  -52.8092 -5.50839 12.9605
LeftLeg  94.8492 2.46784 -21.7401
LeftFoot  20.3432 5.86567 -20.9244
LeftToes  2.72522e-012 8.43823e-011 6.24977e-012
2921
root  54.8336 19.6437 40.69 -119.22 28.3215 -174.78
RightUpLeg  -48.0012 -16.3345 4.73412
RightLeg  99.1055 -0.95236 6.49604
RightFoot  13.359 -2.97283 13.9422
RightToes  -1.33073e-015 0 -3.6325e-017
Spine  25.814 5.63024 -5.67031
Spine1  -4.86393 3.63731 6.75484
HEad  -22.2398 22.5939 -24.3032
LeftShoulder1  3.61097 -14.0292 -14.1376
LeftArm  -39.364 -41.9647 -20.7739
LeftForeArm  24.3577 -7.21418 -2.36884
LeftHand  -0.250389 2.34218 9.27268
RightShoulder  1.00156 8.15368 0.44725
RightArm  4.64612 66.469 88.732
RightForeArm  47.608 -5.28662 -0.913192
RightHand  -7.85654 6.02849 -70.1698
LeftUpLeg  -52.2657 -5.54171 13.4839
LeftLeg  94.4823 2.3706 -22.126
LeftFoot  20.3079 5.72866 -20.4776
LeftToes  2.72522e-012 8.43823e-011 6.24977e-012
2922
root  54.7673 19.6512 40.4877 -118.982 27.8306 -174.026
RightUpLeg  -50.3102 -15.5426 5.54196
RightLeg  101.619 -1.58716 7.89556
RightFoot  13.0118 -2.99856 14.2518
RightToes  -1.33073e-015 0 -3.6325e-017
Spine  26.0873 6.0131 -5.72084
Spine1  -4.83859 3.87717 7.91085
HEad  -22.7164 22.1509 -25.1458
LeftShoulder1  3.74661 -14.3174 -14.6062
LeftArm  -40.5581 -41.7437 -19.1332
LeftForeArm  18.9853 -5.50967 -1.56787
LeftHand  -0.232578 1.7433 7.23406
RightShoulder  0.982988 7.98533 0.405941
RightArm  3.59716 66.119 87.8276
RightForeArm  47.9616 -5.26353 -0.994159
RightHand  -7.96258 6.14171 -70.3613
LeftUpLeg  -51.6839 -5.65318 13.9559
LeftLeg  94.1737 2.26932 -22.3324
LeftFoot  20.362 5.50556 -19.6773
LeftToes  2.72522e-012 8.43823e-011 6.24977e-012
2923
root  54.6972 19.6817 40.2567 -118.916 27.2268 -173.279
RightUpLeg  -52.7572 -14.0883 6.09733
RightLeg  104.024 -2.36389 9.35859
RightFoot  12.4686 -3.13757 15.2153
RightToes  -1.33073e-015 0 -3.6325e-017
Spine  26.5372 6.25189 -5.56588
Spine1  -4.70257 4.0299 8.81794
HEad  -23.1157 21.7959 -25.6545
LeftShoulder1  3.94302 -14.5577 -15.495
LeftArm  -41.3123 -41.5395 -17.6323
LeftForeArm  17.2722 -4.6088 -1.15945
LeftHand  -0.22459 1.31317 6.28741
RightShoulder  0.979043 7.8983 0.441754
RightArm  3.61981 66.1938 86.7782
RightForeArm  47.4431 -5.36709 -0.470683
RightHand  -8.22176 6.40428 -70.8773
LeftUpLeg  -50.9491 -5.81136 14.3675
LeftLeg  93.9087 2.09022 -21.7629
LeftFoot  20.338 5.50668 -19.696
LeftToes  2.72522e-012 8.43823e-011 6.24977e-012
2924
root  54.6227 19.6991 40.0378 -118.945 26.3156 -172.515
RightUpLeg  -55.3976 -11.8591 6.93249
RightLeg  106.145 -3.1149 10.4761
RightFoot  12.2407 -3.0393 14.8937
RightToes  -1.33073e-015 0 -3.6325e-017
Spine  27.015 6.37159 -5.43223
Spine1  -4.47871 4.04705 9.84401
HEad  -23.2803 21.3829 -25.7619
LeftShoulder1  4.19005 -14.9754 -16.4156
LeftArm  -42.109 -40.8911 -16.3737
LeftForeArm  17.77 -4.412 -0.865978
LeftHand  -0.210722 1.06234 5.57425
RightShoulder  0.948665 7.75224 0.257709
RightArm  4.08982 66.3561 86.879
RightForeArm  46.7822 -5.41955 -0.262933
RightHand  -8.21522 6.38967 -70.9013
LeftUpLeg  -50.2076 -5.99726 15.0024
LeftLeg  93.7823 1.93979 -20.917
LeftFoot  20.3908 5.45801 -19.4963
LeftToes  2.72522e-012 8.43823e-011 6.24977e-012
